<svg width="54" height="56" xmlns="http://www.w3.org/2000/svg">

 <g>
  <title>background</title>
  <rect fill="none" id="canvas_background" height="402" width="582" y="-1" x="-1"/>
 </g>
 <g>
  <title>Layer 1</title>
  <rect id="svg_1" stroke-width="2" stroke="#5A7184" rx="26" height="54" width="52" y="1" x="1"/>
  <g id="svg_6">
   <path id="svg_5" fill="#5A7184" d="m28.609143,37.170895c0.483951,-0.483951 0.435556,-1.209954 0,-1.69375l-5.855803,-5.56551l13.937763,0c0.629213,0 1.161482,-0.483951 1.161482,-1.161482l0,-1.548642c0,-0.629136 -0.532268,-1.161482 -1.161482,-1.161482l-13.937763,0l5.855803,-5.517037c0.435556,-0.483951 0.483951,-1.209877 0,-1.693827l-1.064691,-1.064691c-0.435556,-0.435556 -1.209877,-0.435556 -1.645432,0l-9.388643,9.437038c-0.483951,0.435556 -0.483951,1.161482 0,1.597037l9.388643,9.437038c0.435556,0.435478 1.161482,0.435478 1.645432,0l1.064691,-1.064691z"/>
  </g>
 </g>
</svg>